<?xml version="1.0" encoding="UTF-8"?>
<svg xmlns="http://www.w3.org/2000/svg" version="1.1" viewBox="0 0 4227 996.8">
  <defs>
    <style>
      .cls-1 {
        fill: #191919;
      }
    </style>
  </defs>
  <!-- Generator: Adobe Illustrator 28.7.1, SVG Export Plug-In . SVG Version: 1.2.0 Build 142)  -->
  <g>
    <g id="Layer_1">
      <g>
        <path d="M512.6,996.8c-64.7,0-127.6-12.7-186.8-37.7-57.1-24.2-108.4-58.8-152.5-102.8s-78.6-95.3-102.8-152.5c-25-59.2-37.7-122-37.7-186.8s12.7-127.6,37.7-186.8c24.2-57.1,58.8-108.4,102.8-152.5,44-44,95.3-78.6,152.5-102.8,59.2-25,122-37.7,186.8-37.7s127.6,12.7,186.8,37.7c57.1,24.2,108.4,58.8,152.5,102.8s78.6,95.3,102.8,152.5c25,59.2,37.7,122,37.7,186.8s-12.7,127.6-37.7,186.8c-24.2,57.1-58.8,108.4-102.8,152.5-44,44-95.3,78.6-152.5,102.8-59.2,25-122,37.7-186.8,37.7ZM512.6,147.2c-98.8,0-191.6,38.5-261.5,108.3-69.8,69.8-108.3,162.7-108.3,261.5s38.5,191.6,108.3,261.5c69.8,69.8,162.7,108.3,261.5,108.3s191.6-38.5,261.5-108.3c69.8-69.8,108.3-162.7,108.3-261.5s-38.5-191.6-108.3-261.5-162.7-108.3-261.5-108.3Z"/>
        <path d="M476,856.7c-51.3,0-101.1-10.1-148-29.9-45.3-19.2-85.9-46.6-120.9-81.5-34.9-34.9-62.3-75.6-81.5-120.9-19.8-46.9-29.9-96.7-29.9-148s10.1-101.1,29.9-148c19.2-45.3,46.6-85.9,81.5-120.9,34.9-34.9,75.6-62.3,120.9-81.5,46.9-19.8,96.7-29.9,148-29.9s101.1,10.1,148,29.9c45.3,19.2,85.9,46.6,120.9,81.5,34.9,34.9,62.3,75.6,81.5,120.9,19.8,46.9,29.9,96.7,29.9,148s-10.1,101.1-29.9,148c-19.2,45.3-46.6,85.9-81.5,120.9-34.9,34.9-75.6,62.3-120.9,81.5-46.9,19.8-96.7,29.9-148,29.9ZM476,106.2c-50,0-98.5,9.8-144.1,29.1-44.1,18.6-83.7,45.3-117.7,79.3-34,34-60.7,73.6-79.3,117.7-19.3,45.6-29.1,94.1-29.1,144.1s9.8,98.5,29.1,144.1c18.6,44.1,45.3,83.7,79.3,117.7,34,34,73.6,60.7,117.7,79.3,45.6,19.3,94.1,29.1,144.1,29.1s98.5-9.8,144.1-29.1c44.1-18.6,83.7-45.3,117.7-79.3,34-34,60.7-73.6,79.3-117.7,19.3-45.6,29.1-94.1,29.1-144.1s-9.8-98.5-29.1-144.1c-18.6-44.1-45.3-83.7-79.3-117.7-34-34-73.6-60.7-117.7-79.3-45.6-19.3-94.1-29.1-144.1-29.1Z"/>
        <path d="M479.6,0C214.7,0,0,214.7,0,479.6s214.7,479.6,479.6,479.6,479.6-214.7,479.6-479.6S744.4,0,479.6,0ZM473.9,942.4C214.8,942.4,4.7,732.4,4.7,473.2S214.8,4,473.9,4s469.2,210.1,469.2,469.2-210.1,469.2-469.2,469.2Z"/>
        <path class="cls-1" d="M2577.1,709.8c4-4.9,3-9.3,3.1-13.3,4.1-132.3,5.9-264.7,6.4-397.1.1-32-.5-32.2,31.9-29.9,44.6,3.2,89.2,2.5,133.8,1.4,8.5-.2,11.2.3,11.2,10.8,0,113.7.5,227.5,2.2,341.2.5,29.7,2.3,59.4,3.4,89.1.4,10.8-3.3,14.2-13.9,14.3-52.3.4-105.2,6.8-156.7,1-61-6.9-121.5,1.7-182.1-3.5-9.8-.8-11.7-6.6-13.5-13.6-7.8-29.8-10.6-60.4-14.2-90.8-.6-4.8-.7-9.6-1.5-14.3-5.5-30.7-29.9-45.6-60.4-37.4-7.7,2.1-4.2,7.7-4.3,11.6-.2,44.1-.4,88.3.2,132.4.1,10.3-2.2,14.5-13.3,14.6-107.4.8-214.9.6-322.3-1.8-12.1-.3-15.1-5.1-16.2-15.9-5.8-53.8-6.1-53.8-59.1-53.6-22.5.1-45.1.9-67.6.6-10.1-.1-15.5,2.4-17.4,13.4-2.7,15.5-7.8,30.6-11.4,46-1.8,7.7-5.5,11.3-13.7,11.4-49.9.6-99.8,1.5-149.7,2.5-13.3.3-11.9-6.6-9.2-15.8,25.3-86.3,53.6-171.7,81.5-257.2,19.1-58.7,38.6-117.3,57.4-176,2.8-8.6,7.2-10.5,15.5-10.5,64.8,0,129.5-.3,194.3-1.2,12.4-.2,18.6,3.8,22.8,16,42.4,123,81.2,247.3,121,371.2,1.8,5.7,2.3,12.1,9.1,19.4,0-54.7-.1-106.6,0-158.5.2-76.8.8-153.5.6-230.3,0-12.1,3.7-15.5,15.4-15.2,93.1,2.6,186.1-3.9,279.2.8,22.2,1.1,43.7,5.2,64.2,14.3,65.1,28.8,82.8,117.6,33.7,169.3-15.7,16.6-34.9,28.3-56.2,39.5,7.1,3.4,13.3,6.1,19.2,9.3,40.3,22,54.5,59.7,60.9,101.9,4.4,28.9,5.1,58.3,11.8,86.8,1.3,5.4,2.6,10.8,4.1,17.2ZM1894.6,559.2c13.9,0,27.8-.3,41.7.1,7.2.2,8.4-1.9,7.6-9.1-3.9-36.2-12-71.6-20.2-107-5.4-23.3-10.7-46.6-16.5-69.8-1.4-5.7-4.9-11.7-11.1-11.8-5.5-.1-5.8,6.7-7.1,10.9-18.1,58.5-30.9,118.3-44.1,178-1.6,7.3.8,9.1,7.9,8.9,13.9-.5,27.8-.1,41.7-.1ZM2321.7,417.8c0,14.8-.1,29.7,0,44.5,0,3.4-1.3,8.4,5,8.1,28.5-1.4,57.1-4,76.8-28.2,24.6-30.2,10.9-69-26.7-78.5-15-3.8-30.4-3.2-45.7-3.6-6.8-.2-9.2,2.2-9.4,8.9-.5,16.3-.9,48.8-.2,48.8Z"/>
        <path class="cls-1" d="M3258.2,497.1c0,70.5-.4,141.1.3,211.6.1,12.6-4.2,15.1-15.5,15.1-58.5-.2-117.1,0-175.6.8-10.8.1-16-3.1-19.7-13.4-25.5-70.1-51.6-140-77.6-210-1-2.7-2.1-5.3-3-8.1-1.4-4.2-3.7-6.3-8.5-5.5-4.5.8-4.9,3.8-4.9,7.3,0,3.4-.1,6.7-.1,10.1.5,66.7,1.1,133.4,1.5,200.1.1,22.1,0,21.7-22.3,21.7-36.5,0-72.9.6-109.4,1.2-16.9.3-23.3-5.1-22.9-21.3,3.2-140.6.7-281.2,5.4-421.8.3-9.9,2.9-13.3,12.9-13.4,60.9-.7,121.9-1.7,182.8-3.3,9.3-.2,12.2,3.8,14.8,11.3,25.9,75.1,54.7,149.1,83.3,223.2,1,2.7,2.2,5.3,3.1,8,1.2,3.4,3.9,3.6,7,3.5,3.8-.1,4.6-2.5,4.6-5.7,0-3.4,0-6.7,0-10.1.3-71.5,1-143,.7-214.5,0-10.9,3.5-13.9,13.6-14.3,39.9-1.7,79.6,2,119.5,1.3,10.1-.2,7.5,6.5,7.5,11.6.1,71.5,0,143,0,214.5.8,0,1.7,0,2.5,0Z"/>
        <path class="cls-1" d="M3941.1,539.9c-5.3,59.6-8.7,115.1-6.4,170.8.5,11.2-3.1,16-14.1,16-49.9.4-99.8.9-149.7,1.3-12,0-14.8-6.7-14.7-17.8.7-125.2,1-250.5,1.3-375.7,0-17.7-.3-35.5-.6-53.2-.1-9.9,3.5-14,14.5-13.9,45.6.6,91.1,0,136.7.3,24.4.2,24.7,1.1,24.6,24.7-.3,47-.6,94-.5,141.1,0,4.5-3.6,11.3,4.3,13.2,8.7,2,8.2-6.1,10.5-10.7,22.9-45.8,45.5-91.7,64.3-139.4,7.8-19.8,19-29.2,42.6-28.1,50.2,2.3,100.7.7,149.6.7,4,7,0,9.8-1.6,12.8-36,63.8-72,127.6-108.7,191-5,8.6-4.2,14.1.8,21.6,46.6,69.2,84.7,143.5,128.5,214.3,7.9,12.8,6,15.1-9,15.1-55.2,0-110.4,0-165.5.5-8.9,0-13.7-2.7-17.7-10.6-26.7-53-53.9-105.7-80.9-158.5-2.1-4.1-4.3-8.1-8.3-15.5Z"/>
        <path class="cls-1" d="M3739.3,485c0,36.5-2.8,67.6-11.6,97.6-20.4,69.8-63.6,117.3-134.8,138.4-52.1,15.4-104.5,18.9-157.7,7.7-88.1-18.5-146.2-82.8-159.8-174.1-6.9-46.3-3.7-91.9,6.9-137,16.1-68.8,60.3-114,124.3-140.5,63.1-26.2,127.8-27.6,192.7-7.6,76,23.4,115.1,80.1,133.8,153.6,5.6,21.8,6.8,44.5,6.1,61.9ZM3440.8,518.8c-.4,14.9,1.7,41,9.8,66.5,8.7,27.2,25.1,42.6,47.3,43.4,30.2,1.2,52.3-13.1,62.6-40.6,6.1-16.3,9.1-33.3,10.2-50.5,2.9-42.6,4.9-85.4-7.6-127-8.4-28-28.4-43.1-54.4-42.9-25.9.1-46.2,16.9-54.8,44.4-9.7,31.1-10.5,63.2-13.2,106.8Z"/>
        <path class="cls-1" d="M1587.9,442.3c-22.1,0-44.1-.2-66.2.1-8,.1-12.8-2.6-14.7-10.4-1.8-7.4-3.7-14.8-5.5-22.3-4.9-20.1-13.7-29.9-28.7-31.6-17.4-2-36.4,8-44.3,23.6-2.8,5.5-5.6,11.4-6.6,17.4-9.2,51.3-10.7,103-3.2,154.5,3.7,25.7,19.7,39.5,39.6,41.1,12.4,1,21.2-3.2,27.3-14.2,6.3-11.4,10.6-23.5,14.1-36,2.2-7.9,6.3-11.2,15.3-11.1,47.5.7,95,1,142.5.4,13.1-.2,15.3,4.9,14.2,16.3-6.4,67.9-39.4,117.1-102.4,144.5-61.1,26.6-124.7,30-188.7,13.6-74.4-19.1-117.6-70.3-138.1-142.2-16.1-56.4-17.8-113.4-2.5-170.4,17.2-63.7,55-110.1,117.1-134.2,63.6-24.8,128.9-28.8,194.6-10.2,81.6,23.2,115,84.1,117.5,161.2.3,8-4.1,8.3-9.7,8.9-23.9,2.3-47.9,2.7-71.9,1Z"/>
      </g>
    </g>
  </g>
</svg>