<svg xmlns="http://www.w3.org/2000/svg" version="1.1" xmlns:xlink="http://www.w3.org/1999/xlink" width="992.3" height="996.8"><svg xmlns="http://www.w3.org/2000/svg" version="1.1" viewBox="0 0 992.3 996.8">
  <defs>
    <style>
      .cls-1 {
        fill: #aa00fe;
      }
    </style>
  </defs>
  <!-- Generator: Adobe Illustrator 28.7.1, SVG Export Plug-In . SVG Version: 1.2.0 Build 142)  -->
  <g>
    <g id="SvgjsG1001">
      <g>
        <path class="cls-1" d="M512.6,996.8c-64.7,0-127.6-12.7-186.8-37.7-57.1-24.2-108.4-58.8-152.5-102.8s-78.6-95.3-102.8-152.5c-25-59.2-37.7-122-37.7-186.8s12.7-127.6,37.7-186.8c24.2-57.1,58.8-108.4,102.8-152.5,44-44,95.3-78.6,152.5-102.8,59.2-25,122-37.7,186.8-37.7s127.6,12.7,186.8,37.7c57.1,24.2,108.4,58.8,152.5,102.8s78.6,95.3,102.8,152.5c25,59.2,37.7,122,37.7,186.8s-12.7,127.6-37.7,186.8c-24.2,57.1-58.8,108.4-102.8,152.5-44,44-95.3,78.6-152.5,102.8-59.2,25-122,37.7-186.8,37.7ZM512.6,147.2c-98.8,0-191.6,38.5-261.5,108.3-69.8,69.8-108.3,162.7-108.3,261.5s38.5,191.6,108.3,261.5c69.8,69.8,162.7,108.3,261.5,108.3s191.6-38.5,261.5-108.3c69.8-69.8,108.3-162.7,108.3-261.5s-38.5-191.6-108.3-261.5-162.7-108.3-261.5-108.3Z"></path>
        <path class="cls-1" d="M476,856.7c-51.3,0-101.1-10.1-148-29.9-45.3-19.2-85.9-46.6-120.9-81.5-34.9-34.9-62.3-75.6-81.5-120.9-19.8-46.9-29.9-96.7-29.9-148s10.1-101.1,29.9-148c19.2-45.3,46.6-85.9,81.5-120.9,34.9-34.9,75.6-62.3,120.9-81.5,46.9-19.8,96.7-29.9,148-29.9s101.1,10.1,148,29.9c45.3,19.2,85.9,46.6,120.9,81.5,34.9,34.9,62.3,75.6,81.5,120.9,19.8,46.9,29.9,96.7,29.9,148s-10.1,101.1-29.9,148c-19.2,45.3-46.6,85.9-81.5,120.9-34.9,34.9-75.6,62.3-120.9,81.5-46.9,19.8-96.7,29.9-148,29.9ZM476,106.2c-50,0-98.5,9.8-144.1,29.1-44.1,18.6-83.7,45.3-117.7,79.3-34,34-60.7,73.6-79.3,117.7-19.3,45.6-29.1,94.1-29.1,144.1s9.8,98.5,29.1,144.1c18.6,44.1,45.3,83.7,79.3,117.7,34,34,73.6,60.7,117.7,79.3,45.6,19.3,94.1,29.1,144.1,29.1s98.5-9.8,144.1-29.1c44.1-18.6,83.7-45.3,117.7-79.3,34-34,60.7-73.6,79.3-117.7,19.3-45.6,29.1-94.1,29.1-144.1s-9.8-98.5-29.1-144.1c-18.6-44.1-45.3-83.7-79.3-117.7-34-34-73.6-60.7-117.7-79.3-45.6-19.3-94.1-29.1-144.1-29.1Z"></path>
        <path class="cls-1" d="M479.6,0C214.7,0,0,214.7,0,479.6s214.7,479.6,479.6,479.6,479.6-214.7,479.6-479.6S744.4,0,479.6,0ZM473.9,942.4C214.8,942.4,4.7,732.4,4.7,473.2S214.8,4,473.9,4s469.2,210.1,469.2,469.2-210.1,469.2-469.2,469.2Z"></path>
      </g>
    </g>
  </g>
</svg><style>@media (prefers-color-scheme: light) { :root { filter: none; } }
@media (prefers-color-scheme: dark) { :root { filter: none; } }
</style></svg>